<svg id="ecra" xmlns="http://www.w3.org/2000/svg" xmlns:xlink="http://www.w3.org/1999/xlink" viewBox="0 0 414 897"><defs><style>.cls-1{fill:none;}.cls-2{clip-path:url(#clip-path);}.cls-3{fill:#f9f9f9;}.cls-4{fill:#fff;}.cls-5{fill:#004487;}.cls-6{fill:#090121;}</style><clipPath id="clip-path"><rect class="cls-1" x="-0.89" width="415.79" height="897"/></clipPath></defs><title>background2</title><g class="cls-2"><rect class="cls-3" x="-0.89" width="415.79" height="897"/><path class="cls-4" d="M257.12,239.8c-82.59-48.14-166.76-57.61-188-21.16C151.7,266.77,235.88,276.25,257.12,239.8ZM368.2,393c-82.59-48.14-166.76-57.62-188-21.17C262.79,419.93,347,429.41,368.2,393Zm-188-21.17c-82.59-48.13-166.76-57.61-188-21.16C74.77,398.76,159,408.24,180.19,371.79ZM291.27,525c21.25-36.45-28.48-105-111.08-153.16C159,408.24,208.68,476.81,291.27,525ZM69.11,218.64c-21.24,36.44,28.49,105,111.08,153.15C201.44,335.34,151.7,266.77,69.11,218.64ZM513.44,831.26c21.24-36.44-28.49-105-111.08-153.15C381.11,714.56,430.85,783.13,513.44,831.26ZM-84.75,482.62c82.59,48.14,166.77,57.61,188,21.16C20.67,455.65-63.5,446.17-84.75,482.62ZM667.3,567.28c21.24-36.44-28.49-105-111.08-153.15C535,450.57,584.7,519.15,667.3,567.28Zm76.93-132c-82.6-48.14-166.77-57.61-188-21.16C638.81,462.26,723,471.74,744.23,435.29ZM146,86.65c-21.24,36.44,28.49,105,111.08,153.15C278.37,203.35,228.63,134.78,146,86.65ZM445.13,261c-82.59-48.14-166.76-57.62-188-21.17C339.72,287.94,423.89,297.42,445.13,261ZM368.2,393c21.25-36.45-28.48-105-111.08-153.16C235.88,276.25,285.61,344.82,368.2,393Zm0,0c82.6,48.14,166.77,57.61,188,21.17C473.62,366,389.45,356.51,368.2,393ZM291.27,525c82.6,48.14,166.77,57.62,188,21.17C396.69,498,312.52,488.5,291.27,525Zm299.1,174.32c21.24-36.44-28.49-105-111.08-153.15C458,582.57,507.77,651.14,590.37,699.27ZM368.2,393C347,429.41,396.69,498,479.29,546.12,500.53,509.67,450.8,441.1,368.2,393ZM479.29,546.12c82.59,48.14,166.76,57.61,188,21.16C584.7,519.15,500.53,509.67,479.29,546.12Zm-76.93,132c82.59,48.14,166.76,57.61,188,21.16C507.77,651.14,423.6,641.66,402.36,678.11ZM291.27,525c-82.59-48.14-166.76-57.61-188-21.17C185.86,551.92,270,561.4,291.27,525ZM445.13,261c-21.24,36.45,28.49,105,111.09,153.16C577.46,377.68,527.73,309.11,445.13,261ZM-7.82,350.63c-21.24,36.45,28.49,105,111.08,153.15C124.51,467.34,74.77,398.76-7.82,350.63ZM214.35,656.94c82.59,48.14,166.76,57.62,188,21.17C319.76,630,235.59,620.49,214.35,656.94ZM103.26,503.78C82,540.23,131.75,608.8,214.35,656.94,235.59,620.49,185.86,551.92,103.26,503.78Zm188,21.17C270,561.4,319.76,630,402.36,678.11,423.6,641.66,373.87,573.09,291.27,525Z"/><path class="cls-5" d="M112.41,294.32c-82.61-48.15-166.81-57.63-188-21.19C7,321.28,91.16,330.77,112.41,294.32ZM223.53,447.5c-82.62-48.15-166.81-57.64-188-21.19C118.09,474.46,202.28,484,223.53,447.5Zm-188-21.19c-82.61-48.15-166.81-57.63-188-21.18C-70,453.27,14.23,462.76,35.48,426.31ZM146.6,579.49c21.24-36.45-28.51-105-111.12-153.18C14.23,462.76,64,531.34,146.6,579.49ZM-75.64,273.13c-21.24,36.45,28.51,105,111.12,153.18C56.72,389.86,7,321.28-75.64,273.13ZM368.83,885.85c21.25-36.45-28.5-105-111.12-153.18C236.47,769.12,286.22,837.7,368.83,885.85ZM-229.5,537.12c82.61,48.15,166.8,57.63,188.05,21.18C-124.06,510.15-208.26,500.67-229.5,537.12Zm752.19,84.75c21.24-36.45-28.5-105-111.12-153.18C390.33,505.14,440.08,573.72,522.69,621.87Zm76.93-132c-82.61-48.15-166.8-57.64-188-21.19C494.19,516.84,578.38,526.32,599.62,489.88ZM1.29,141.14c-21.24,36.45,28.51,105,111.12,153.18C133.65,257.87,83.9,189.29,1.29,141.14ZM300.46,315.51c-82.62-48.15-166.81-57.64-188-21.19C195,342.47,279.21,352,300.46,315.51Zm-76.93,132c21.24-36.45-28.51-105-111.12-153.18C91.16,330.77,140.91,399.35,223.53,447.5Zm0,0c82.61,48.15,166.8,57.64,188,21.19C329,420.54,244.77,411.05,223.53,447.5Zm-76.93,132c82.61,48.15,166.8,57.64,188,21.19C252,552.53,167.84,543,146.6,579.49ZM445.76,753.86c21.24-36.45-28.5-105-111.12-153.18C313.4,637.13,363.15,705.71,445.76,753.86ZM223.53,447.5C202.28,484,252,552.53,334.64,600.68,355.89,564.23,306.14,495.65,223.53,447.5ZM334.64,600.68c82.62,48.15,166.81,57.64,188.05,21.19C440.08,573.72,355.89,564.23,334.64,600.68Zm-76.93,132c82.62,48.15,166.81,57.64,188.05,21.19C363.15,705.71,279,696.22,257.71,732.67ZM146.6,579.49C64,531.34-20.21,521.86-41.45,558.3,41.16,606.45,125.35,615.94,146.6,579.49Zm153.86-264C279.21,352,329,420.54,411.57,468.69,432.82,432.24,383.07,363.66,300.46,315.51Zm-453,89.62c-21.24,36.44,28.51,105,111.12,153.17C-20.21,521.86-70,453.27-152.57,405.13ZM69.67,711.48c82.61,48.15,166.8,57.64,188,21.19C175.1,684.52,90.91,675,69.67,711.48ZM-41.45,558.3c-21.25,36.45,28.5,105,111.12,153.18C90.91,675,41.16,606.45-41.45,558.3ZM146.6,579.49c-21.25,36.45,28.5,105,111.11,153.18C279,696.22,229.21,627.64,146.6,579.49Z"/><path class="cls-6" d="M162.9,434.19C80.3,386.05-3.87,376.57-25.12,413,57.48,461.16,141.65,470.64,162.9,434.19ZM274,587.34c-82.59-48.13-166.77-57.61-188-21.16C168.56,614.32,252.73,623.79,274,587.34ZM86,566.18C3.37,518-80.8,508.56-102,545-19.45,593.15,64.72,602.63,86,566.18ZM197.05,719.33c21.24-36.44-28.49-105-111.08-153.15C64.72,602.63,114.46,671.2,197.05,719.33ZM-25.12,413C-46.36,449.47,3.37,518,86,566.18,107.21,529.73,57.48,461.16-25.12,413Zm444.33,612.63c21.24-36.45-28.49-105-111.08-153.16C286.89,908.94,336.62,977.51,419.21,1025.65ZM-179,677c82.59,48.14,166.76,57.62,188,21.17C-73.56,650-157.73,640.55-179,677Zm752,84.67c21.24-36.45-28.49-105-111.08-153.16C440.74,645,490.48,713.53,573.07,761.67Zm76.93-132c-82.59-48.14-166.77-57.62-188-21.17C544.58,656.65,628.76,666.13,650,629.68ZM51.81,281c-21.24,36.45,28.49,105,111.09,153.16C184.14,397.74,134.41,329.17,51.81,281Zm299.1,174.32c-82.6-48.13-166.77-57.61-188-21.16C245.49,482.32,329.66,491.8,350.91,455.35ZM274,587.34c21.24-36.44-28.49-105-111.08-153.15C141.65,470.64,191.39,539.21,274,587.34Zm0,0c82.59,48.14,166.76,57.62,188,21.17C379.4,560.37,295.22,550.9,274,587.34Zm-76.93,132c82.59,48.14,166.76,57.62,188,21.17C302.47,692.36,218.29,682.89,197.05,719.33ZM496.14,893.66c21.24-36.45-28.49-105-111.08-153.16C363.81,777,413.55,845.52,496.14,893.66ZM274,587.34c-21.25,36.45,28.49,105,111.08,153.16C406.3,704.05,356.57,635.48,274,587.34ZM385.06,740.5c82.59,48.14,166.77,57.62,188,21.17C490.48,713.53,406.3,704.05,385.06,740.5Zm-76.93,132c82.59,48.14,166.77,57.62,188,21.17C413.55,845.52,329.37,836,308.13,872.49ZM197.05,719.33C114.46,671.2,30.28,661.72,9,698.17,91.63,746.31,175.8,755.78,197.05,719.33Zm153.86-264C329.66,491.8,379.4,560.37,462,608.51,483.23,572.06,433.5,503.49,350.91,455.35ZM-102,545C-123.29,581.46-73.56,650,9,698.17,30.28,661.72-19.45,593.15-102,545ZM120.12,851.33c82.59,48.13,166.77,57.61,188,21.16C225.54,824.35,141.36,814.88,120.12,851.33ZM9,698.17c-21.25,36.45,28.49,105,111.08,153.16C141.36,814.88,91.63,746.31,9,698.17Zm188,21.16c-21.25,36.45,28.49,105,111.08,153.16C329.37,836,279.64,767.47,197.05,719.33Z"/></g></svg>